<?xml version="1.0" standalone="no"?>
<!DOCTYPE svg PUBLIC "-//W3C//DTD SVG 20010904//EN"
 "http://www.w3.org/TR/2001/REC-SVG-20010904/DTD/svg10.dtd">
<svg version="1.0" xmlns="http://www.w3.org/2000/svg"
 width="512.000000pt" height="512.000000pt" viewBox="0 0 512.000000 512.000000"
 preserveAspectRatio="xMidYMid meet">

<g transform="translate(0.000000,512.000000) scale(0.100000,-0.100000)"
fill="#000000" stroke="none">
<path d="M2022 1650 l-532 -5 -20 -32 c-11 -18 -90 -156 -176 -305 -87 -150
-199 -346 -251 -435 -51 -90 -136 -237 -187 -328 -52 -90 -102 -175 -111 -189
-16 -25 -16 -25 22 -36 27 -8 539 -10 1819 -8 l1780 3 40 26 c35 24 73 90 370
641 182 338 335 628 339 646 l7 32 -1284 -2 c-706 -2 -1523 -5 -1816 -8z"/>
</g>
</svg>
